<?xml version="1.0" encoding="UTF-8" standalone="yes"?>
<!DOCTYPE svg PUBLIC "-//W3C//DTD SVG 1.1//EN" "http://www.w3.org/Graphics/SVG/1.1/DTD/svg11.dtd">

<svg width="500" height="500" viewBox="0 0 500 500" xmlns="http://www.w3.org/2000/svg" xmlns:xlink="http://www.w3.org/1999/xlink" version="1.1" baseProfile="full">
    <g transform="scale(1,-1) translate(0,-500)">
        <path d="M 40.585500 199.534400 L 44.068000 200.066700 L 47.429800 200.932200 L 50.653200 202.113300 L 53.720500 203.592200 L 56.613900 205.351400 L 59.315800 207.373200 L 61.808500 209.639900 L 64.074200 212.133800 L 66.095200 214.837200 L 67.853900 217.732500 L 69.332500 220.802000 L 70.513400 224.028100 L 71.378800 227.393000 L 71.911000 230.879100 L 72.092300 234.468800 L 71.911000 238.058400 L 71.378800 241.544600 L 70.513400 244.909500 L 69.332500 248.135600 L 67.853900 251.205100 L 66.095200 254.100400 L 64.074200 256.803800 L 61.808500 259.297700 L 59.315800 261.564400 L 56.613900 263.586100 L 53.720500 265.345300 L 50.653200 266.824300 L 47.429800 268.005400 L 44.068000 268.870900 L 40.585500 269.403200 L 37.000000 269.584500 L 33.414400 269.403200 L 29.931900 268.870900 L 26.570100 268.005400 L 23.346700 266.824300 L 20.279400 265.345300 L 17.386000 263.586100 L 14.684100 261.564400 L 12.191500 259.297700 L 9.925800 256.803800 L 7.904700 254.100400 L 6.146000 251.205100 L 4.667400 248.135600 L 3.486500 244.909500 L 2.621100 241.544600 L 2.088900 238.058400 L 1.907600 234.468800 L 2.088900 230.879100 L 2.621100 227.393000 L 3.486500 224.028100 L 4.667400 220.802000 L 6.146000 217.732500 L 7.904700 214.837200 L 9.925800 212.133800 L 12.191500 209.639900 L 14.684100 207.373200 L 17.386000 205.351400 L 20.279400 203.592200 L 23.346700 202.113300 L 26.570100 200.932200 L 29.931900 200.066700 L 33.414400 199.534400 L 37.000000 199.353100 Z M 55.503200 181.139600 L 20.119600 181.139600 L 20.119600 168.107600 L 55.503200 168.107600 Z M 72.092300 165.000000 L 1.907600 165.000000 L 1.907600 1.084500 L 72.092300 1.084500 Z" transform="scale(1.000000,1.000000) translate(213.000000,85.000000)" opacity="1.000000"></path>
        <path d="M 38.193994 1.084556 L 1.496769 1.084554 L 1.496769 6.341740 L 38.193994 6.341743 Z M 38.193993 21.030941 L 1.496768 21.030939 L 1.496767 36.699417 L 6.444707 36.699417 L 6.444708 26.288126 L 17.577574 26.288126 L 17.577574 35.359350 L 22.525514 35.359351 L 22.525514 26.288126 L 38.193992 26.288127 Z M 27.112666 54.996489 L 27.112667 44.585198 L 30.668999 44.585198 Q 31.905984 44.585198 32.576017 45.281003 Q 33.246051 45.976807 33.246051 47.162251 Q 33.246051 48.656941 32.369853 49.146581 Q 31.493655 49.636221 30.617457 49.739303 L 30.617457 54.996490 Q 34.070707 54.996490 36.183890 52.883307 Q 37.266252 51.852486 37.884745 50.409337 Q 38.503237 48.966188 38.503238 47.162251 Q 38.503238 44.688281 37.472417 42.961656 Q 36.441596 41.235031 34.740742 40.307292 Q 33.709921 39.740340 32.369854 39.534176 Q 31.029786 39.328012 29.432014 39.328012 L 20.824659 39.328011 Q 19.226887 39.328011 17.886820 39.534175 Q 16.546752 39.740339 15.515931 40.307291 Q 13.815077 41.235029 12.784256 42.961654 Q 11.753435 44.688279 11.753435 47.162250 Q 11.753434 48.966186 12.371927 50.435106 Q 12.990419 51.904026 14.072781 52.934847 Q 16.392128 54.996489 19.896919 54.996489 Z M 22.989383 44.585198 L 22.989383 49.739302 L 20.000002 49.739302 Q 18.505311 49.739302 17.757966 49.043498 Q 17.010621 48.347694 17.010621 47.162250 Q 17.010621 45.976806 17.757967 45.281002 Q 18.505312 44.585198 20.000002 44.585198 Z M 27.112665 74.066677 L 27.112665 63.655385 L 30.668998 63.655385 Q 31.905983 63.655385 32.576016 64.351190 Q 33.246050 65.046994 33.246050 66.232438 Q 33.246050 67.727128 32.369852 68.216768 Q 31.493654 68.706408 30.617456 68.809490 L 30.617456 74.066677 Q 34.070706 74.066677 36.183889 71.953494 Q 37.266251 70.922673 37.884744 69.479524 Q 38.503236 68.036375 38.503236 66.232438 Q 38.503237 63.758468 37.472416 62.031843 Q 36.441595 60.305218 34.740740 59.377479 Q 33.709920 58.810527 32.369852 58.604363 Q 31.029785 58.398199 29.432013 58.398199 L 20.824658 58.398198 Q 19.226886 58.398198 17.886818 58.604362 Q 16.546751 58.810526 15.515930 59.377478 Q 13.815076 60.305216 12.784255 62.031841 Q 11.753434 63.758466 11.753433 66.232437 Q 11.753433 68.036373 12.371926 69.505293 Q 12.990418 70.974213 14.072780 72.005034 Q 16.392127 74.066676 19.896918 74.066676 Z M 22.989382 63.655385 L 22.989381 68.809490 L 20.000001 68.809489 Q 18.505310 68.809489 17.757965 68.113685 Q 17.010620 67.417881 17.010620 66.232437 Q 17.010620 65.046993 17.757965 64.351189 Q 18.505311 63.655385 20.000001 63.655385 Z M 1.496765 77.623007 L 1.496764 82.880194 L 30.823620 82.880196 Q 32.318310 82.880196 32.859491 83.421377 Q 33.400672 83.962558 33.555295 85.457248 L 38.503235 85.457248 Q 38.503235 83.653312 38.219760 82.210162 Q 37.936284 80.767013 37.111627 79.736192 Q 36.338512 78.705371 34.921133 78.164190 Q 33.503754 77.623009 31.184407 77.623009 Z M 38.193988 97.414771 L 1.496763 97.414769 L 1.496763 113.083247 L 6.444703 113.083247 L 6.444704 102.671956 L 17.577570 102.671957 L 17.577569 111.743181 L 22.525509 111.743181 L 22.525510 102.671957 L 38.193988 102.671958 Z M 38.193987 116.175712 L 12.062677 116.175710 L 12.062677 121.432897 L 38.193987 121.432899 Z M 6.753949 116.175710 L 1.496762 116.175710 L 1.496762 121.432896 L 6.753949 121.432897 Z M 38.193987 125.762346 L 12.062676 125.762345 L 12.062676 131.019532 L 14.588187 131.019532 L 14.588187 131.122614 Q 13.351202 131.947271 12.552316 133.106944 Q 11.753430 134.266618 11.753429 136.070554 Q 11.753429 137.049834 12.088446 138.029114 Q 12.423463 139.008394 13.196578 139.781510 Q 13.969694 140.554625 15.180909 141.018495 Q 16.392123 141.482364 18.144519 141.482364 L 38.193986 141.482366 L 38.193986 136.225179 L 20.103079 136.225178 Q 18.659930 136.225178 17.835273 135.555144 Q 17.010616 134.885110 17.010616 133.648125 Q 17.010616 132.153435 17.938355 131.586483 Q 18.866094 131.019532 20.618490 131.019532 L 38.193986 131.019533 Z M 27.112660 161.016421 L 27.112660 150.605130 L 30.668992 150.605130 Q 31.905978 150.605130 32.576011 151.300934 Q 33.246045 151.996739 33.246045 153.182183 Q 33.246045 154.676873 32.369847 155.166513 Q 31.493649 155.656153 30.617451 155.759235 L 30.617451 161.016422 Q 34.070701 161.016422 36.183884 158.903239 Q 37.266246 157.872418 37.884739 156.429269 Q 38.503231 154.986120 38.503231 153.182183 Q 38.503231 150.708213 37.472411 148.981588 Q 36.441590 147.254963 34.740735 146.327224 Q 33.709914 145.760272 32.369847 145.554108 Q 31.029780 145.347944 29.432008 145.347943 L 20.824653 145.347943 Q 19.226881 145.347943 17.886813 145.554107 Q 16.546746 145.760271 15.515925 146.327223 Q 13.815071 147.254961 12.784250 148.981586 Q 11.753429 150.708211 11.753428 153.182181 Q 11.753428 154.986118 12.371921 156.455038 Q 12.990413 157.923958 14.072775 158.954779 Q 16.392122 161.016421 19.896913 161.016421 Z M 22.989377 150.605130 L 22.989376 155.759234 L 19.999996 155.759234 Q 18.505305 155.759234 17.757960 155.063430 Q 17.010615 154.367626 17.010615 153.182182 Q 17.010615 151.996738 17.757960 151.300934 Q 18.505306 150.605130 19.999996 150.605130 Z" transform="scale(1.000000,1.000000) translate(230.000000,85.000000)" fill="#ffffff" opacity="1.000000"></path>
        <path d="M 48.822600 175.915600 L 128.201500 175.915600 L 128.201500 222.790600 L 48.822600 222.790600 L 48.822600 294.876700 L 166.489800 294.876700 L 166.489800 341.751700 L 25.385100 341.751700 L 22.988700 341.630700 L 20.661600 341.275600 L 18.415500 340.698000 L 16.262200 339.909900 L 14.213400 338.922900 L 12.281000 337.749000 L 10.476700 336.399700 L 8.812300 334.887000 L 7.299600 333.222700 L 5.950300 331.418400 L 4.776400 329.485900 L 3.789400 327.437200 L 3.001300 325.283800 L 2.423800 323.037700 L 2.068600 320.710600 L 1.947600 318.314200 L 1.947600 1.084500 L 48.822600 1.084500 Z M 366.052300 318.314200 L 365.931300 320.710600 L 365.576200 323.037700 L 364.998600 325.283800 L 364.210500 327.437200 L 363.223500 329.485900 L 362.049600 331.418400 L 360.700300 333.222700 L 359.187600 334.887000 L 357.523200 336.399700 L 355.718900 337.749000 L 353.786500 338.922900 L 351.737700 339.909900 L 349.584400 340.698000 L 347.338300 341.275600 L 345.011200 341.630700 L 342.614800 341.751700 L 207.218100 341.751700 L 207.218100 294.876700 L 319.177300 294.876700 L 319.177300 222.790600 L 239.798400 222.790600 L 239.798400 175.915600 L 319.177300 175.915600 L 319.177300 1.084500 L 366.052300 1.084500 Z" transform="scale(1.000000,1.000000) translate(66.000000,85.000000)" opacity="1.000000"></path>
    </g>
</svg>